<?xml version="1.0" encoding="UTF-8" standalone="no"?>
<!DOCTYPE svg PUBLIC "-//W3C//DTD SVG 1.1//EN"
 "http://www.w3.org/Graphics/SVG/1.1/DTD/svg11.dtd">
<!-- Generated by graphviz version 2.43.0 (0)
 -->
<!-- Title: %3 Pages: 1 -->
<svg width="944pt" height="566pt"
 viewBox="0.00 0.00 944.00 566.00" xmlns="http://www.w3.org/2000/svg" xmlns:xlink="http://www.w3.org/1999/xlink">
<g id="graph0" class="graph" transform="scale(1 1) rotate(0) translate(4 562)">
<title>%3</title>
<polygon fill="white" stroke="transparent" points="-4,4 -4,-562 940,-562 940,4 -4,4"/>
<!-- 1 -->
<g id="node1" class="node">
<title>1</title>
<ellipse fill="none" stroke="black" cx="467" cy="-540" rx="27" ry="18"/>
<text text-anchor="middle" x="467" y="-536.3" font-family="Times,serif" font-size="14.00">1</text>
</g>
<!-- 2 -->
<g id="node2" class="node">
<title>2</title>
<ellipse fill="none" stroke="black" cx="106" cy="-105" rx="27" ry="18"/>
<text text-anchor="middle" x="106" y="-101.3" font-family="Times,serif" font-size="14.00">2</text>
</g>
<!-- 1&#45;&gt;2 -->
<g id="edge1" class="edge">
<title>1&#45;&gt;2</title>
<path fill="none" stroke="black" stroke-width="0.9" d="M439.84,-539.42C345.54,-540.17 38,-536.29 38,-454 38,-454 38,-454 38,-234.5 38,-193.41 65.5,-152.61 85.53,-128.35"/>
<polygon fill="black" stroke="black" stroke-width="0.9" points="88.41,-130.37 92.24,-120.49 83.08,-125.82 88.41,-130.37"/>
<text text-anchor="middle" x="47.5" y="-318.8" font-family="Times,serif" font-size="14.00">12</text>
</g>
<!-- 5 -->
<g id="node3" class="node">
<title>5</title>
<ellipse fill="none" stroke="black" cx="500" cy="-453" rx="27" ry="18"/>
<text text-anchor="middle" x="500" y="-449.3" font-family="Times,serif" font-size="14.00">5</text>
</g>
<!-- 1&#45;&gt;5 -->
<g id="edge2" class="edge">
<title>1&#45;&gt;5</title>
<path fill="none" stroke="black" stroke-width="0.6" d="M477.29,-523.07C480.73,-517.24 484.36,-510.48 487,-504 489.98,-496.69 492.44,-488.5 494.4,-480.89"/>
<polygon fill="black" stroke="black" stroke-width="0.6" points="497.84,-481.56 496.75,-471.03 491.03,-479.94 497.84,-481.56"/>
<text text-anchor="middle" x="497" y="-492.8" font-family="Times,serif" font-size="14.00">8</text>
</g>
<!-- 6 -->
<g id="node4" class="node">
<title>6</title>
<ellipse fill="none" stroke="black" cx="443" cy="-366" rx="27" ry="18"/>
<text text-anchor="middle" x="443" y="-362.3" font-family="Times,serif" font-size="14.00">6</text>
</g>
<!-- 1&#45;&gt;6 -->
<g id="edge3" class="edge">
<title>1&#45;&gt;6</title>
<path fill="none" stroke="black" stroke-width="0.3" d="M447.61,-527.36C438.47,-521.21 427.87,-513.06 420,-504 409.05,-491.39 406.13,-487.19 402,-471 394.17,-440.29 403.7,-429.18 420,-402 422.09,-398.52 424.36,-394.9 426.63,-391.36"/>
<polygon fill="black" stroke="black" stroke-width="0.3" points="429.64,-393.14 432.19,-382.85 423.79,-389.31 429.64,-393.14"/>
<text text-anchor="middle" x="407" y="-449.3" font-family="Times,serif" font-size="14.00">4</text>
</g>
<!-- 7 -->
<g id="node5" class="node">
<title>7</title>
<ellipse fill="none" stroke="black" cx="350" cy="-279" rx="27" ry="18"/>
<text text-anchor="middle" x="350" y="-275.3" font-family="Times,serif" font-size="14.00">7</text>
</g>
<!-- 1&#45;&gt;7 -->
<g id="edge4" class="edge">
<title>1&#45;&gt;7</title>
<path fill="none" stroke="black" stroke-width="0.6" d="M440.35,-536.61C400.01,-532.43 326.22,-522.45 308,-504 248.98,-444.23 264.81,-387.05 308,-315 311.74,-308.76 317,-303.13 322.54,-298.29"/>
<polygon fill="black" stroke="black" stroke-width="0.6" points="325.06,-300.76 330.7,-291.79 320.7,-295.28 325.06,-300.76"/>
<text text-anchor="middle" x="276" y="-405.8" font-family="Times,serif" font-size="14.00">8</text>
</g>
<!-- 8 -->
<g id="node6" class="node">
<title>8</title>
<ellipse fill="none" stroke="black" cx="569" cy="-192" rx="27" ry="18"/>
<text text-anchor="middle" x="569" y="-188.3" font-family="Times,serif" font-size="14.00">8</text>
</g>
<!-- 1&#45;&gt;8 -->
<g id="edge5" class="edge">
<title>1&#45;&gt;8</title>
<path fill="none" stroke="black" stroke-width="0.15" d="M492.24,-533.06C527.17,-523.16 586,-499.7 586,-454 586,-454 586,-454 586,-321.5 586,-286.1 579.58,-245.68 574.63,-219.78"/>
<polygon fill="black" stroke="black" stroke-width="0.15" points="578.06,-219.08 572.69,-209.95 571.19,-220.44 578.06,-219.08"/>
<text text-anchor="middle" x="591" y="-362.3" font-family="Times,serif" font-size="14.00">2</text>
</g>
<!-- None -->
<g id="node7" class="node">
<title>None</title>
<ellipse fill="none" stroke="black" cx="238" cy="-18" rx="35.19" ry="18"/>
<text text-anchor="middle" x="238" y="-14.3" font-family="Times,serif" font-size="14.00">None</text>
</g>
<!-- 1&#45;&gt;None -->
<g id="edge6" class="edge">
<title>1&#45;&gt;None</title>
<path fill="none" stroke="black" stroke-width="0.15" d="M439.85,-538.64C360.93,-537.29 132.78,-531.07 64,-504 30.41,-490.78 0,-490.1 0,-454 0,-454 0,-454 0,-104 0,-63.15 125.9,-36.76 194.56,-25.4"/>
<polygon fill="black" stroke="black" stroke-width="0.15" points="195.34,-28.82 204.66,-23.77 194.23,-21.91 195.34,-28.82"/>
<text text-anchor="middle" x="5" y="-275.3" font-family="Times,serif" font-size="14.00">2</text>
</g>
<!-- conspecific 3 -->
<g id="node8" class="node">
<title>conspecific 3</title>
<ellipse fill="none" stroke="black" cx="752" cy="-105" rx="70.39" ry="18"/>
<text text-anchor="middle" x="752" y="-101.3" font-family="Times,serif" font-size="14.00">conspecific 3</text>
</g>
<!-- 1&#45;&gt;conspecific 3 -->
<g id="edge7" class="edge">
<title>1&#45;&gt;conspecific 3</title>
<path fill="none" stroke="black" stroke-width="0.6" d="M494.09,-538.56C571.73,-536.97 793.83,-530.22 861,-504 894.95,-490.75 926,-490.45 926,-454 926,-454 926,-454 926,-191 926,-144.08 874.28,-123.05 827.23,-113.63"/>
<polygon fill="black" stroke="black" stroke-width="0.6" points="827.76,-110.17 817.29,-111.8 826.48,-117.06 827.76,-110.17"/>
<text text-anchor="middle" x="931" y="-318.8" font-family="Times,serif" font-size="14.00">8</text>
</g>
<!-- cunningtoni -->
<g id="node9" class="node">
<title>cunningtoni</title>
<ellipse fill="none" stroke="black" cx="718" cy="-192" rx="65.79" ry="18"/>
<text text-anchor="middle" x="718" y="-188.3" font-family="Times,serif" font-size="14.00">cunningtoni</text>
</g>
<!-- 1&#45;&gt;cunningtoni -->
<g id="edge8" class="edge">
<title>1&#45;&gt;cunningtoni</title>
<path fill="none" stroke="black" stroke-width="0.3" d="M493.79,-537.06C566.65,-531.07 763,-509.74 763,-454 763,-454 763,-454 763,-278 763,-255.88 750.95,-233.89 739.32,-217.82"/>
<polygon fill="black" stroke="black" stroke-width="0.3" points="741.84,-215.36 732.98,-209.54 736.28,-219.61 741.84,-215.36"/>
<text text-anchor="middle" x="768" y="-362.3" font-family="Times,serif" font-size="14.00">4</text>
</g>
<!-- 5&#45;&gt;1 -->
<g id="edge9" class="edge">
<title>5&#45;&gt;1</title>
<path fill="none" stroke="black" stroke-width="0.75" d="M481.87,-466.55C474.9,-472.46 467.73,-480.17 464,-489 460.98,-496.16 460.43,-504.41 461,-512.13"/>
<polygon fill="black" stroke="black" stroke-width="0.75" points="457.54,-512.71 462.34,-522.15 464.48,-511.78 457.54,-512.71"/>
<text text-anchor="middle" x="473.5" y="-492.8" font-family="Times,serif" font-size="14.00">10</text>
</g>
<!-- 5&#45;&gt;6 -->
<g id="edge10" class="edge">
<title>5&#45;&gt;6</title>
<path fill="none" stroke="black" stroke-width="0.15" d="M485.33,-437.78C479.52,-431.7 473.04,-424.33 468,-417 462.92,-409.61 458.25,-401.04 454.35,-393.1"/>
<polygon fill="black" stroke="black" stroke-width="0.15" points="457.43,-391.42 450.01,-383.86 451.1,-394.4 457.43,-391.42"/>
<text text-anchor="middle" x="473" y="-405.8" font-family="Times,serif" font-size="14.00">2</text>
</g>
<!-- 5&#45;&gt;None -->
<g id="edge11" class="edge">
<title>5&#45;&gt;None</title>
<path fill="none" stroke="black" stroke-width="0.3" d="M478.98,-441.49C410.86,-407.42 200.27,-301.94 194,-297 119.39,-238.25 96.41,-214.21 70,-123 65.55,-107.63 61.06,-100.27 70,-87 97.42,-46.32 153.77,-29.97 193.63,-23.4"/>
<polygon fill="black" stroke="black" stroke-width="0.3" points="194.26,-26.84 203.63,-21.9 193.22,-19.92 194.26,-26.84"/>
<text text-anchor="middle" x="137" y="-231.8" font-family="Times,serif" font-size="14.00">4</text>
</g>
<!-- Xenotilapia spp. -->
<g id="node10" class="node">
<title>Xenotilapia spp.</title>
<ellipse fill="none" stroke="black" cx="716" cy="-18" rx="85.29" ry="18"/>
<text text-anchor="middle" x="716" y="-14.3" font-family="Times,serif" font-size="14.00">Xenotilapia spp.</text>
</g>
<!-- 5&#45;&gt;Xenotilapia spp. -->
<g id="edge12" class="edge">
<title>5&#45;&gt;Xenotilapia spp.</title>
<path fill="none" stroke="black" stroke-width="0.15" d="M526.88,-451.23C608.84,-448.15 850,-433.44 850,-367 850,-367 850,-367 850,-104 850,-68.49 816.04,-47.19 782.31,-34.8"/>
<polygon fill="black" stroke="black" stroke-width="0.15" points="783.42,-31.48 772.83,-31.53 781.14,-38.1 783.42,-31.48"/>
<text text-anchor="middle" x="855" y="-231.8" font-family="Times,serif" font-size="14.00">2</text>
</g>
<!-- 6&#45;&gt;1 -->
<g id="edge13" class="edge">
<title>6&#45;&gt;1</title>
<path fill="none" stroke="black" stroke-width="0.3" d="M443.77,-384.01C445.17,-410.05 448.78,-461.27 457,-504 457.52,-506.7 458.15,-509.49 458.84,-512.27"/>
<polygon fill="black" stroke="black" stroke-width="0.3" points="455.5,-513.33 461.51,-522.06 462.26,-511.49 455.5,-513.33"/>
<text text-anchor="middle" x="457" y="-449.3" font-family="Times,serif" font-size="14.00">4</text>
</g>
<!-- 6&#45;&gt;2 -->
<g id="edge14" class="edge">
<title>6&#45;&gt;2</title>
<path fill="none" stroke="black" stroke-width="0.3" d="M417.69,-359.36C366.07,-346.72 247.36,-311.7 174,-243 141.58,-212.64 122.49,-163.46 113.16,-133.02"/>
<polygon fill="black" stroke="black" stroke-width="0.3" points="116.42,-131.71 110.26,-123.1 109.7,-133.68 116.42,-131.71"/>
<text text-anchor="middle" x="179" y="-231.8" font-family="Times,serif" font-size="14.00">4</text>
</g>
<!-- 6&#45;&gt;5 -->
<g id="edge15" class="edge">
<title>6&#45;&gt;5</title>
<path fill="none" stroke="black" stroke-width="0.15" d="M458.96,-380.55C465.45,-386.64 472.66,-394.2 478,-402 482.89,-409.15 487.1,-417.57 490.48,-425.44"/>
<polygon fill="black" stroke="black" stroke-width="0.15" points="487.34,-427.01 494.32,-434.98 493.83,-424.4 487.34,-427.01"/>
<text text-anchor="middle" x="491" y="-405.8" font-family="Times,serif" font-size="14.00">2</text>
</g>
<!-- 6&#45;&gt;7 -->
<g id="edge16" class="edge">
<title>6&#45;&gt;7</title>
<path fill="none" stroke="black" stroke-width="0.15" d="M422.62,-353.99C411.99,-347.73 399.13,-339.28 389,-330 380.72,-322.41 372.85,-312.94 366.37,-304.28"/>
<polygon fill="black" stroke="black" stroke-width="0.15" points="369.09,-302.06 360.4,-295.99 363.41,-306.15 369.09,-302.06"/>
<text text-anchor="middle" x="394" y="-318.8" font-family="Times,serif" font-size="14.00">2</text>
</g>
<!-- 6&#45;&gt;8 -->
<g id="edge17" class="edge">
<title>6&#45;&gt;8</title>
<path fill="none" stroke="black" stroke-width="0.3" d="M467.09,-357.85C481.66,-352.38 499.57,-343.46 511,-330 541.85,-293.69 522.57,-270.55 544,-228 545.93,-224.17 548.25,-220.3 550.68,-216.6"/>
<polygon fill="black" stroke="black" stroke-width="0.3" points="553.58,-218.57 556.46,-208.37 547.85,-214.55 553.58,-218.57"/>
<text text-anchor="middle" x="538" y="-275.3" font-family="Times,serif" font-size="14.00">4</text>
</g>
<!-- 6&#45;&gt;None -->
<g id="edge18" class="edge">
<title>6&#45;&gt;None</title>
<path fill="none" stroke="black" stroke-width="0.45" d="M450.16,-348.51C467.53,-307.28 508.96,-201.1 487,-174 462.69,-144 437.48,-171.23 402,-156 341.66,-130.1 286.36,-74.52 257.98,-42.69"/>
<polygon fill="black" stroke="black" stroke-width="0.45" points="260.58,-40.35 251.35,-35.14 255.32,-44.96 260.58,-40.35"/>
<text text-anchor="middle" x="498" y="-188.3" font-family="Times,serif" font-size="14.00">6</text>
</g>
<!-- conspecific 4 -->
<g id="node11" class="node">
<title>conspecific 4</title>
<ellipse fill="none" stroke="black" cx="408" cy="-192" rx="70.39" ry="18"/>
<text text-anchor="middle" x="408" y="-188.3" font-family="Times,serif" font-size="14.00">conspecific 4</text>
</g>
<!-- 6&#45;&gt;conspecific 4 -->
<g id="edge19" class="edge">
<title>6&#45;&gt;conspecific 4</title>
<path fill="none" stroke="black" stroke-width="0.15" d="M438.75,-348.01C435.38,-334.28 430.64,-314.45 427,-297 421.6,-271.14 416.27,-241.49 412.63,-220.48"/>
<polygon fill="black" stroke="black" stroke-width="0.15" points="416.03,-219.61 410.89,-210.35 409.13,-220.8 416.03,-219.61"/>
<text text-anchor="middle" x="432" y="-275.3" font-family="Times,serif" font-size="14.00">2</text>
</g>
<!-- 7&#45;&gt;1 -->
<g id="edge20" class="edge">
<title>7&#45;&gt;1</title>
<path fill="none" stroke="black" stroke-width="3" d="M349.53,-297.29C349.33,-337.97 354.21,-441.05 405,-504 412.68,-513.52 423.7,-520.92 434.32,-526.4"/>
<polygon fill="black" stroke="black" stroke-width="3" points="432.92,-529.61 443.45,-530.74 435.92,-523.29 432.92,-529.61"/>
<text text-anchor="middle" x="373.5" y="-405.8" font-family="Times,serif" font-size="14.00">40</text>
</g>
<!-- 7&#45;&gt;6 -->
<g id="edge21" class="edge">
<title>7&#45;&gt;6</title>
<path fill="none" stroke="black" stroke-width="0.15" d="M350.33,-297.01C351.37,-307.57 354.3,-320.84 362,-330 373.51,-343.69 391.37,-352.17 407.4,-357.35"/>
<polygon fill="black" stroke="black" stroke-width="0.15" points="406.49,-360.73 417.07,-360.16 408.44,-354.01 406.49,-360.73"/>
<text text-anchor="middle" x="367" y="-318.8" font-family="Times,serif" font-size="14.00">2</text>
</g>
<!-- 7&#45;&gt;8 -->
<g id="edge22" class="edge">
<title>7&#45;&gt;8</title>
<path fill="none" stroke="black" stroke-width="0.45" d="M372.54,-268.6C378.53,-266.12 385.01,-263.45 391,-261 427.37,-246.14 436.09,-241.45 473,-228 497.17,-219.19 503.88,-218.93 528,-210 531.11,-208.85 534.33,-207.61 537.53,-206.33"/>
<polygon fill="black" stroke="black" stroke-width="0.45" points="539.05,-209.5 546.99,-202.49 536.41,-203.01 539.05,-209.5"/>
<text text-anchor="middle" x="478" y="-231.8" font-family="Times,serif" font-size="14.00">6</text>
</g>
<!-- 7&#45;&gt;None -->
<g id="edge23" class="edge">
<title>7&#45;&gt;None</title>
<path fill="none" stroke="black" stroke-width="0.9" d="M323.06,-276.78C282.17,-273.31 205.54,-260.08 171,-210 134.08,-156.49 185.52,-80.56 216.88,-42.57"/>
<polygon fill="black" stroke="black" stroke-width="0.9" points="219.82,-44.52 223.61,-34.63 214.48,-40 219.82,-44.52"/>
<text text-anchor="middle" x="171.5" y="-144.8" font-family="Times,serif" font-size="14.00">12</text>
</g>
<!-- 7&#45;&gt;cunningtoni -->
<g id="edge26" class="edge">
<title>7&#45;&gt;cunningtoni</title>
<path fill="none" stroke="black" stroke-width="0.15" d="M371.82,-267.97C377.94,-265.43 384.65,-262.89 391,-261 432.61,-248.62 444.45,-251.59 487,-243 545.64,-231.16 612.42,-216.59 659.04,-206.24"/>
<polygon fill="black" stroke="black" stroke-width="0.15" points="659.96,-209.62 668.96,-204.03 658.44,-202.78 659.96,-209.62"/>
<text text-anchor="middle" x="561" y="-231.8" font-family="Times,serif" font-size="14.00">2</text>
</g>
<!-- 7&#45;&gt;conspecific 4 -->
<g id="edge25" class="edge">
<title>7&#45;&gt;conspecific 4</title>
<path fill="none" stroke="black" stroke-width="0.15" d="M348.18,-260.64C347.94,-250.45 349.14,-237.71 355,-228 358.14,-222.8 362.39,-218.22 367.11,-214.23"/>
<polygon fill="black" stroke="black" stroke-width="0.15" points="369.47,-216.84 375.41,-208.07 365.3,-211.22 369.47,-216.84"/>
<text text-anchor="middle" x="360" y="-231.8" font-family="Times,serif" font-size="14.00">2</text>
</g>
<!-- conspecific 1 -->
<g id="node12" class="node">
<title>conspecific 1</title>
<ellipse fill="none" stroke="black" cx="250" cy="-192" rx="70.39" ry="18"/>
<text text-anchor="middle" x="250" y="-188.3" font-family="Times,serif" font-size="14.00">conspecific 1</text>
</g>
<!-- 7&#45;&gt;conspecific 1 -->
<g id="edge24" class="edge">
<title>7&#45;&gt;conspecific 1</title>
<path fill="none" stroke="black" stroke-width="0.15" d="M333.93,-264.34C318.71,-251.4 295.54,-231.7 277.39,-216.28"/>
<polygon fill="black" stroke="black" stroke-width="0.15" points="279.34,-213.35 269.46,-209.54 274.81,-218.68 279.34,-213.35"/>
<text text-anchor="middle" x="311" y="-231.8" font-family="Times,serif" font-size="14.00">2</text>
</g>
<!-- 8&#45;&gt;1 -->
<g id="edge27" class="edge">
<title>8&#45;&gt;1</title>
<path fill="none" stroke="black" stroke-width="1.05" d="M591.95,-201.68C631.43,-217.32 708,-251.13 708,-278 708,-454 708,-454 708,-454 708,-496.85 570.79,-523.43 503.43,-533.9"/>
<polygon fill="black" stroke="black" stroke-width="1.05" points="502.61,-530.48 493.25,-535.44 503.66,-537.4 502.61,-530.48"/>
<text text-anchor="middle" x="717.5" y="-362.3" font-family="Times,serif" font-size="14.00">14</text>
</g>
<!-- 8&#45;&gt;2 -->
<g id="edge28" class="edge">
<title>8&#45;&gt;2</title>
<path fill="none" stroke="black" stroke-width="0.15" d="M547.7,-180.78C541.48,-178.17 534.58,-175.65 528,-174 448.73,-154.13 425.78,-168.39 345,-156 271.76,-144.77 187.12,-125.57 140.79,-114.51"/>
<polygon fill="black" stroke="black" stroke-width="0.15" points="141.5,-111.08 130.96,-112.15 139.86,-117.89 141.5,-111.08"/>
<text text-anchor="middle" x="350" y="-144.8" font-family="Times,serif" font-size="14.00">2</text>
</g>
<!-- 8&#45;&gt;6 -->
<g id="edge29" class="edge">
<title>8&#45;&gt;6</title>
<path fill="none" stroke="black" stroke-width="0.3" d="M553.19,-206.95C546.61,-213.11 539.11,-220.61 533,-228 524.69,-238.06 482.07,-304.06 458.58,-340.65"/>
<polygon fill="black" stroke="black" stroke-width="0.3" points="455.51,-338.97 453.06,-349.27 461.4,-342.74 455.51,-338.97"/>
<text text-anchor="middle" x="514" y="-275.3" font-family="Times,serif" font-size="14.00">4</text>
</g>
<!-- 8&#45;&gt;None -->
<g id="edge31" class="edge">
<title>8&#45;&gt;None</title>
<path fill="none" stroke="black" stroke-width="1.05" d="M546.98,-181.56C540.86,-179.02 534.2,-176.34 528,-174 462.11,-149.17 432.7,-167.34 378,-123 350.29,-100.54 364.57,-76.63 337,-54 320.87,-40.77 299.38,-32.37 280.55,-27.13"/>
<polygon fill="black" stroke="black" stroke-width="1.05" points="281.25,-23.7 270.69,-24.6 279.51,-30.48 281.25,-23.7"/>
<text text-anchor="middle" x="387.5" y="-101.3" font-family="Times,serif" font-size="14.00">14</text>
</g>
<!-- 8&#45;&gt;conspecific 3 -->
<g id="edge34" class="edge">
<title>8&#45;&gt;conspecific 3</title>
<path fill="none" stroke="black" stroke-width="0.6" d="M593.54,-183.81C613.9,-177.49 643.41,-167.53 668,-156 685.6,-147.75 704.26,-136.88 719.52,-127.37"/>
<polygon fill="black" stroke="black" stroke-width="0.6" points="721.49,-130.27 728.07,-121.97 717.75,-124.35 721.49,-130.27"/>
<text text-anchor="middle" x="701" y="-144.8" font-family="Times,serif" font-size="14.00">8</text>
</g>
<!-- 8&#45;&gt;Xenotilapia spp. -->
<g id="edge32" class="edge">
<title>8&#45;&gt;Xenotilapia spp.</title>
<path fill="none" stroke="black" stroke-width="0.15" d="M583.98,-176.67C590.3,-170.46 597.66,-163.01 604,-156 638.18,-118.22 675.08,-71.89 696.83,-43.95"/>
<polygon fill="black" stroke="black" stroke-width="0.15" points="699.71,-45.94 703.07,-35.9 694.18,-41.65 699.71,-45.94"/>
<text text-anchor="middle" x="666" y="-101.3" font-family="Times,serif" font-size="14.00">2</text>
</g>
<!-- 9 -->
<g id="node13" class="node">
<title>9</title>
<ellipse fill="none" stroke="black" cx="591" cy="-105" rx="27" ry="18"/>
<text text-anchor="middle" x="591" y="-101.3" font-family="Times,serif" font-size="14.00">9</text>
</g>
<!-- 8&#45;&gt;9 -->
<g id="edge30" class="edge">
<title>8&#45;&gt;9</title>
<path fill="none" stroke="black" stroke-width="0.6" d="M560.71,-174.85C556.73,-164.86 553.67,-151.9 558,-141 560.08,-135.76 563.36,-130.85 567.06,-126.46"/>
<polygon fill="black" stroke="black" stroke-width="0.6" points="569.64,-128.82 574,-119.16 564.57,-123.99 569.64,-128.82"/>
<text text-anchor="middle" x="563" y="-144.8" font-family="Times,serif" font-size="14.00">8</text>
</g>
<!-- conspecific 2 -->
<g id="node14" class="node">
<title>conspecific 2</title>
<ellipse fill="none" stroke="black" cx="476" cy="-105" rx="70.39" ry="18"/>
<text text-anchor="middle" x="476" y="-101.3" font-family="Times,serif" font-size="14.00">conspecific 2</text>
</g>
<!-- 8&#45;&gt;conspecific 2 -->
<g id="edge33" class="edge">
<title>8&#45;&gt;conspecific 2</title>
<path fill="none" stroke="black" stroke-width="1.2" d="M553.64,-176.96C539.63,-164.16 518.64,-144.97 502.02,-129.78"/>
<polygon fill="black" stroke="black" stroke-width="1.2" points="504,-126.85 494.26,-122.69 499.28,-132.02 504,-126.85"/>
<text text-anchor="middle" x="537.5" y="-144.8" font-family="Times,serif" font-size="14.00">16</text>
</g>
<!-- 9&#45;&gt;1 -->
<g id="edge35" class="edge">
<title>9&#45;&gt;1</title>
<path fill="none" stroke="black" stroke-width="0.45" d="M612.07,-116.44C617.77,-118.92 624.03,-121.32 630,-123 744.17,-155.06 888,-72.42 888,-191 888,-454 888,-454 888,-454 888,-531.87 607.77,-539.26 504.57,-539.34"/>
<polygon fill="black" stroke="black" stroke-width="0.45" points="504.3,-535.84 494.3,-539.32 504.29,-542.84 504.3,-535.84"/>
<text text-anchor="middle" x="893" y="-318.8" font-family="Times,serif" font-size="14.00">6</text>
</g>
<!-- 9&#45;&gt;5 -->
<g id="edge36" class="edge">
<title>9&#45;&gt;5</title>
<path fill="none" stroke="black" stroke-width="0.45" d="M612.58,-116.27C618.17,-118.7 624.24,-121.12 630,-123 708.05,-148.53 826.38,-134.97 793,-210 765.54,-271.73 594.49,-389.58 527.17,-434.24"/>
<polygon fill="black" stroke="black" stroke-width="0.45" points="525.17,-431.37 518.75,-439.8 529.03,-437.21 525.17,-431.37"/>
<text text-anchor="middle" x="757" y="-275.3" font-family="Times,serif" font-size="14.00">6</text>
</g>
<!-- 9&#45;&gt;6 -->
<g id="edge37" class="edge">
<title>9&#45;&gt;6</title>
<path fill="none" stroke="black" stroke-width="0.15" d="M598.35,-122.42C600.59,-128.18 602.78,-134.77 604,-141 612.7,-185.5 619.42,-201.14 602,-243 582.61,-289.6 569.8,-300.28 529,-330 513.57,-341.24 494.01,-349.57 477.45,-355.28"/>
<polygon fill="black" stroke="black" stroke-width="0.15" points="476.01,-352.07 467.59,-358.5 478.18,-358.72 476.01,-352.07"/>
<text text-anchor="middle" x="612" y="-231.8" font-family="Times,serif" font-size="14.00">2</text>
</g>
<!-- 9&#45;&gt;8 -->
<g id="edge38" class="edge">
<title>9&#45;&gt;8</title>
<path fill="none" stroke="black" stroke-width="0.9" d="M586.59,-123.05C583.52,-134.91 579.37,-150.95 575.87,-164.47"/>
<polygon fill="black" stroke="black" stroke-width="0.9" points="572.46,-163.65 573.35,-174.21 579.24,-165.4 572.46,-163.65"/>
<text text-anchor="middle" x="590.5" y="-144.8" font-family="Times,serif" font-size="14.00">12</text>
</g>
<!-- 9&#45;&gt;None -->
<g id="edge40" class="edge">
<title>9&#45;&gt;None</title>
<path fill="none" stroke="black" stroke-width="0.6" d="M570.4,-93.28C565.44,-90.98 560.11,-88.73 555,-87 459.99,-54.86 343.66,-34.51 281.72,-25.12"/>
<polygon fill="black" stroke="black" stroke-width="0.6" points="281.94,-21.61 271.53,-23.6 280.91,-28.54 281.94,-21.61"/>
<text text-anchor="middle" x="492" y="-57.8" font-family="Times,serif" font-size="14.00">8</text>
</g>
<!-- 9&#45;&gt;Xenotilapia spp. -->
<g id="edge41" class="edge">
<title>9&#45;&gt;Xenotilapia spp.</title>
<path fill="none" stroke="black" stroke-width="0.15" d="M600.5,-87.76C607.5,-76.98 617.88,-63.16 630,-54 638.86,-47.3 649.18,-41.67 659.53,-37.02"/>
<polygon fill="black" stroke="black" stroke-width="0.15" points="661.16,-40.14 669.01,-33.03 658.44,-33.69 661.16,-40.14"/>
<text text-anchor="middle" x="635" y="-57.8" font-family="Times,serif" font-size="14.00">2</text>
</g>
<!-- L. dardennii -->
<g id="node15" class="node">
<title>L. dardennii</title>
<ellipse fill="none" stroke="black" cx="546" cy="-18" rx="66.89" ry="18"/>
<text text-anchor="middle" x="546" y="-14.3" font-family="Times,serif" font-size="14.00">L. dardennii</text>
</g>
<!-- 9&#45;&gt;L. dardennii -->
<g id="edge39" class="edge">
<title>9&#45;&gt;L. dardennii</title>
<path fill="none" stroke="black" stroke-width="0.15" d="M582.32,-87.61C575.93,-75.54 567.11,-58.88 559.76,-45"/>
<polygon fill="black" stroke="black" stroke-width="0.15" points="562.73,-43.12 554.96,-35.92 556.54,-46.4 562.73,-43.12"/>
<text text-anchor="middle" x="576" y="-57.8" font-family="Times,serif" font-size="14.00">2</text>
</g>
</g>
</svg>
